<svg xmlns="http://www.w3.org/2000/svg" width="20" height="35" viewBox="0 0 20 35">
    <g fill="none" fill-rule="nonzero">
        <path fill="#FCDC40" d="M18.93 33.879H.43v-8.166a4.384 4.384 0 0 1 4.386-4.382h9.727a4.384 4.384 0 0 1 4.386 4.382v8.166z"/>
        <path fill="#FFF" d="M4.302 29.696h11.186v4.183H4.302zM10.11 23.84c-.832 0-1.506-.639-1.506-1.428v-4.009h3.012v4.009c0 .79-.674 1.429-1.506 1.429z"/>
        <path fill="#B3C6FF" d="M1.876 12.548h15.607l.412-2.017C18.96 5.31 14.988.418 9.68.418 4.37.418.398 5.31 1.464 10.531l.412 2.017z"/>
        <path fill="#FFF" d="M18.93 13.594c0 1.039-.964 1.882-2.152 1.882-1.188 0-2.15-.843-2.15-1.882 0-1.04.962-1.883 2.15-1.883s2.151.843 2.151 1.883zM5.593 13.594c0 1.039-.964 1.882-2.151 1.882-1.188 0-2.151-.843-2.151-1.882 0-1.04.963-1.883 2.15-1.883 1.188 0 2.152.843 2.152 1.883z"/>
        <path fill="#FFF" d="M9.68 20.076c-2.674 0-4.928-2.002-5.26-4.67L3.442 7.53h12.476l-.979 7.877c-.33 2.668-2.586 4.67-5.26 4.67z"/>
        <path fill="#B3C6FF" d="M2.581 9.717s2.707.768 5.193-1.054c0 0 5.552 3.95 10.954.124a.473.473 0 0 0-.016-.785l-3.355-2.146H2.58v3.861z"/>
        <g fill="#474D54">
            <path d="M14.644 20.946h-2.756v-.843c.42-.148.823-.342 1.203-.582a.497.497 0 0 0 .154-.694.518.518 0 0 0-.708-.151 4.973 4.973 0 0 1-2.658.767c-2.477 0-4.576-1.82-4.883-4.232l-.644-5.061a7.063 7.063 0 0 0 3.53-1.101c.541.327 1.765.985 3.387 1.376a10.72 10.72 0 0 0 2.518.308c.528 0 1.049-.043 1.56-.126l-.586 4.604a4.728 4.728 0 0 1-.784 2.075.497.497 0 0 0 .143.697.516.516 0 0 0 .71-.14 5.705 5.705 0 0 0 .903-2.22c.295.115.612.176.934.176 1.393 0 2.527-1.113 2.527-2.48 0-.655-.26-1.25-.683-1.694l.207-.989c.094-.452.153-.912.176-1.37.149-.091.296-.187.442-.288a.97.97 0 0 0 .422-.82.966.966 0 0 0-.458-.797l-.597-.374a8.89 8.89 0 0 0-3.043-4.932A9.122 9.122 0 0 0 9.88 0a9.095 9.095 0 0 0-4.977 1.466.497.497 0 0 0-.144.696.518.518 0 0 0 .71.141 8.059 8.059 0 0 1 4.41-1.298 7.978 7.978 0 0 1 7.518 5.165l-1.519-.95a.518.518 0 0 0-.706.154.497.497 0 0 0 .156.694l3.381 2.115c-2.139 1.468-4.548 1.897-7.161 1.275-1.994-.475-3.367-1.414-3.38-1.424a.52.52 0 0 0-.598.005C5.747 9.345 3.79 9.199 3.032 9.076a.51.51 0 0 0-.589.413.504.504 0 0 0 .421.578c.125.02.278.04.453.057l.094.734a2.556 2.556 0 0 0-1.248.154l-.12-.578c-.51-2.439.162-4.908 1.842-6.776a.496.496 0 0 0-.045-.71.518.518 0 0 0-.722.045C1.223 5.1.465 7.885 1.04 10.636l.206.989a2.448 2.448 0 0 0-.682 1.693c0 1.368 1.133 2.481 2.527 2.481.325 0 .64-.06.934-.175.376 2.097 1.881 3.782 3.845 4.478v.844H4.904c-.993 0-1.95.29-2.766.838a.497.497 0 0 0-.134.698.515.515 0 0 0 .712.131 3.91 3.91 0 0 1 2.188-.663H7.87v.456c0 1.087.901 1.972 2.009 1.972 1.108 0 2.009-.885 2.009-1.972v-.456h2.756c2.139 0 3.88 1.71 3.88 3.81v8.035c0 .277.229.502.511.502a.507.507 0 0 0 .512-.502V25.76c0-2.655-2.2-4.814-4.903-4.814zm2.023-6.152c-.285 0-.556-.077-.792-.222l.338-2.661c.146-.045.298-.069.454-.069.83 0 1.503.662 1.503 1.476s-.674 1.476-1.503 1.476zm1.048-4.36l-.12.577a2.552 2.552 0 0 0-1.248-.153l.062-.487c.478-.136.947-.31 1.404-.52-.026.195-.057.39-.098.583zM1.587 13.318c0-.814.675-1.476 1.504-1.476.156 0 .308.024.454.069l.339 2.661a1.509 1.509 0 0 1-.793.222c-.83 0-1.504-.662-1.504-1.476zM9.88 23.373a.978.978 0 0 1-.985-.967v-2.04a6.063 6.063 0 0 0 1.97 0v2.04a.977.977 0 0 1-.985.967zM1.104 23.54a.516.516 0 0 0-.677.252A4.704 4.704 0 0 0 0 25.76v8.035c0 .277.23.502.512.502a.507.507 0 0 0 .512-.502V25.76c0-.543.113-1.067.337-1.557a.499.499 0 0 0-.257-.664z"/>
            <path d="M6.8 12.39a.507.507 0 0 0-.497.515l.009.314a.508.508 0 0 0 .511.488h.014a.507.507 0 0 0 .498-.516l-.009-.313a.507.507 0 0 0-.525-.489zM12.71 12.39a.507.507 0 0 0-.497.515l.008.314a.507.507 0 0 0 .512.488h.014a.507.507 0 0 0 .497-.516l-.008-.313a.507.507 0 0 0-.526-.489zM11.155 14.788a1.722 1.722 0 0 1-2.763 0 .518.518 0 0 0-.715-.112.496.496 0 0 0-.114.702 2.754 2.754 0 0 0 2.21 1.109c.873 0 1.699-.415 2.211-1.11a.496.496 0 0 0-.114-.7.518.518 0 0 0-.715.111zM4.09 26.562a.507.507 0 0 0-.512.503v6.73c0 .277.229.502.511.502a.507.507 0 0 0 .512-.502v-6.73a.507.507 0 0 0-.512-.503zM15.458 26.562a.507.507 0 0 0-.512.503v6.73c0 .277.23.502.512.502a.507.507 0 0 0 .512-.502v-6.73a.507.507 0 0 0-.512-.503z"/>
        </g>
    </g>
</svg>
