<svg xmlns="http://www.w3.org/2000/svg" xmlns:xlink="http://www.w3.org/1999/xlink" width="137" height="70" viewBox="0 0 137 70">
    <defs>
        <path id="a" d="M99.217 40.362a3.787 3.787 0 0 0-3.782 3.783c0 .293.04.577.105.852l-2.453 1.47h-20.59V40.66h5.713c.494 1.515 1.904 2.62 3.582 2.62a3.787 3.787 0 0 0 3.783-3.782 3.788 3.788 0 0 0-3.783-3.783c-1.679 0-3.088 1.106-3.582 2.621h-5.712v-5.808h15.006c.494 1.515 1.903 2.62 3.581 2.62a3.788 3.788 0 0 0 3.783-3.782 3.788 3.788 0 0 0-3.783-3.783c-1.678 0-3.087 1.106-3.581 2.621H72.498v-5.808h20.589l2.453 1.471a3.747 3.747 0 0 0-.105.852 3.787 3.787 0 0 0 3.782 3.783A3.787 3.787 0 0 0 103 26.719a3.787 3.787 0 0 0-3.783-3.783c-.95 0-1.808.364-2.473.944l-2.737-1.642a1.165 1.165 0 0 0-.598-.166H72.498v-4.647h17.425c.353 0 .687-.16.908-.436l4.124-5.156a3.787 3.787 0 0 0 4.56-3.701 3.787 3.787 0 0 0-3.783-3.783 3.787 3.787 0 0 0-3.783 3.783c0 .97.377 1.846.98 2.516l-3.563 4.454H72.498v-3.485h8.132c.44 0 .843-.248 1.04-.642l1.36-2.723c.346.105.706.177 1.086.177a3.787 3.787 0 0 0 3.782-3.782A3.787 3.787 0 0 0 84.116.864a3.787 3.787 0 0 0-3.783 3.783c0 .852.293 1.63.77 2.264l-1.191 2.383h-7.414V8.132C72.498 3.648 68.85 0 64.366 0a8.107 8.107 0 0 0-7.364 4.685c-.05-.005-.1-.003-.151-.007-.204-.015-.408-.03-.617-.03l-.015.002c-4.473-.016-8.116 3.65-8.117 8.129 0 .113.003.226.007.34a8.135 8.135 0 0 0-10.462 7.792c0 1.13.237 2.244.693 3.274A12.206 12.206 0 0 0 33 34.27c0 4.058 2.02 7.827 5.34 10.086a8.096 8.096 0 0 0-.693 3.274c0 4.484 3.648 8.132 8.132 8.132.797 0 1.58-.115 2.33-.34a7.258 7.258 0 0 0-.007.34c0 4.48 3.648 8.146 8.118 8.13l.014.002c.206 0 .407-.016.61-.03.053-.005.104-.003.158-.008a8.106 8.106 0 0 0 7.364 4.684c4.088 0 7.473-3.036 8.039-6.97h7.507l1.192 2.383a3.748 3.748 0 0 0-.771 2.264A3.787 3.787 0 0 0 84.116 70a3.787 3.787 0 0 0 3.782-3.783 3.788 3.788 0 0 0-3.782-3.783c-.38 0-.74.074-1.085.178l-1.362-2.723a1.162 1.162 0 0 0-1.039-.642h-8.132v-3.485h16.868l3.563 4.454a3.754 3.754 0 0 0-.98 2.516 3.787 3.787 0 0 0 3.783 3.783 3.787 3.787 0 0 0 3.783-3.783 3.787 3.787 0 0 0-4.56-3.701l-4.124-5.157a1.164 1.164 0 0 0-.908-.436H72.498v-4.646h20.91c.211 0 .417-.057.599-.166l2.737-1.642c.665.58 1.524.944 2.473.944A3.787 3.787 0 0 0 103 44.145a3.788 3.788 0 0 0-3.783-3.783zm-17.425-2.324c.804 0 1.459.655 1.459 1.46 0 .805-.655 1.46-1.46 1.46-.804 0-1.46-.655-1.46-1.46 0-.805.656-1.46 1.46-1.46zm9.293-8.132a1.46 1.46 0 1 1-1.46 1.46c0-.805.655-1.46 1.46-1.46zm8.132-4.646c.805 0 1.46.654 1.46 1.459s-.655 1.46-1.46 1.46c-.804 0-1.46-.655-1.46-1.46 0-.805.656-1.46 1.46-1.46zM95.732 6.673c.805 0 1.46.654 1.46 1.459s-.655 1.46-1.46 1.46c-.805 0-1.46-.655-1.46-1.46 0-.805.655-1.46 1.46-1.46zM84.115 3.187c.805 0 1.46.655 1.46 1.46a1.46 1.46 0 1 1-1.46-1.46zm1.46 63.03c0 .804-.655 1.46-1.46 1.46-.804 0-1.46-.656-1.46-1.46 0-.805.656-1.46 1.46-1.46.805 0 1.46.655 1.46 1.46zm11.617-3.485a1.46 1.46 0 0 1-2.92 0c0-.601.367-1.118.887-1.34.002-.003.005-.004.008-.006a1.461 1.461 0 0 1 2.024 1.345zm-32.826 3.485a5.78 5.78 0 0 1-5.034-2.94c2.95-1.221 5.034-4.129 5.034-7.516a1.162 1.162 0 1 0-2.324 0c0 2.784-1.97 5.11-4.586 5.675-.063.013-.124.018-.186.03a5.786 5.786 0 0 1-.96.097c-3.232.058-5.885-2.576-5.885-5.802 0-.659.118-1.319.349-1.962a1.16 1.16 0 0 0-1.745-1.355 5.775 5.775 0 0 1-3.25.994 5.816 5.816 0 0 1-5.809-5.808c0-1.085.308-2.149.89-3.077a1.163 1.163 0 0 0-.424-1.633 9.884 9.884 0 0 1-5.112-8.65 9.884 9.884 0 0 1 5.112-8.65c.28-.154.484-.416.564-.725.08-.31.029-.638-.14-.908a5.787 5.787 0 0 1-.89-3.077 5.816 5.816 0 0 1 5.809-5.808c1.166 0 2.29.344 3.25.994a1.161 1.161 0 0 0 1.745-1.354 5.805 5.805 0 0 1-.349-1.963c0-3.23 2.658-5.862 5.895-5.8.323.005.64.04.948.096.063.011.124.016.188.03 2.617.563 4.587 2.89 4.587 5.674a1.162 1.162 0 1 0 2.323 0c0-3.387-2.083-6.295-5.034-7.516a5.78 5.78 0 0 1 5.034-2.94 5.816 5.816 0 0 1 5.809 5.809V22.71c-.082.16-.14.333-.14.524s.058.365.14.523v6.447H67.85a3.49 3.49 0 0 1-3.485-3.485 1.162 1.162 0 0 0-2.323 0 5.816 5.816 0 0 0 5.808 5.809h2.324v10.455H67.55a2.024 2.024 0 0 1-2.022-2.022c0-4.01-3.262-7.272-7.272-7.272h-.86a1.162 1.162 0 0 0 0 2.323h.86a4.955 4.955 0 0 1 4.948 4.95 4.35 4.35 0 0 0 4.346 4.344h2.625v15.103a5.815 5.815 0 0 1-5.81 5.808zm34.851-20.613c-.804 0-1.46-.654-1.46-1.46 0-.804.656-1.458 1.46-1.458.805 0 1.46.654 1.46 1.459s-.655 1.46-1.46 1.46z"/>
        <path id="c" d="M67.079-6.447H103v85.658H67.079z"/>
    </defs>
    <g fill="none" fill-rule="evenodd">
        <path fill="#FFC843" fill-rule="nonzero" d="M48.658 26.25c0-3.302-2.48-5.987-5.527-5.987h-.614c-.678 0-1.228.595-1.228 1.33 0 .735.55 1.33 1.228 1.33h.614c1.693 0 3.07 1.493 3.07 3.327 0 1.833-1.377 3.326-3.07 3.326-.678 0-1.227.596-1.227 1.33 0 .735.55 1.33 1.227 1.33 3.048 0 5.527-2.685 5.527-5.986zM53 37.442c-3.847 0-6.977 3.021-6.977 6.735v.282c0 .62.521 1.122 1.163 1.122s1.163-.502 1.163-1.122v-.282c0-2.476 2.087-4.49 4.65-4.49.643 0 1.164-.503 1.164-1.122 0-.62-.521-1.123-1.163-1.123zM56.116 22.79a4.564 4.564 0 0 0 4.558-4.557 1.14 1.14 0 0 0-2.279 0 2.28 2.28 0 0 1-2.279 2.278 1.14 1.14 0 0 0 0 2.28zM61.175 49.839a3.949 3.949 0 0 1-3.944-3.945 1.127 1.127 0 0 0-2.254 0 6.206 6.206 0 0 0 6.198 6.199 1.127 1.127 0 1 0 0-2.254z"/>
        <path fill="#FFC843" fill-rule="nonzero" d="M99.217 40.362a3.787 3.787 0 0 0-3.782 3.783c0 .293.04.577.105.852l-2.453 1.47h-20.59V40.66h5.713c.494 1.515 1.904 2.62 3.582 2.62a3.787 3.787 0 0 0 3.783-3.782 3.788 3.788 0 0 0-3.783-3.783c-1.679 0-3.088 1.106-3.582 2.621h-5.712v-5.808h15.006c.494 1.515 1.903 2.62 3.581 2.62a3.788 3.788 0 0 0 3.783-3.782 3.788 3.788 0 0 0-3.783-3.783c-1.678 0-3.087 1.106-3.581 2.621H72.498v-5.808h20.589l2.453 1.471a3.747 3.747 0 0 0-.105.852 3.787 3.787 0 0 0 3.782 3.783A3.787 3.787 0 0 0 103 26.719a3.787 3.787 0 0 0-3.783-3.783c-.95 0-1.808.364-2.473.944l-2.737-1.642a1.165 1.165 0 0 0-.598-.166H72.498v-4.647h17.425c.353 0 .687-.16.908-.436l4.124-5.156a3.787 3.787 0 0 0 4.56-3.701 3.787 3.787 0 0 0-3.783-3.783 3.787 3.787 0 0 0-3.783 3.783c0 .97.377 1.846.98 2.516l-3.563 4.454H72.498v-3.485h8.132c.44 0 .843-.248 1.04-.642l1.36-2.723c.346.105.706.177 1.086.177a3.787 3.787 0 0 0 3.782-3.782A3.787 3.787 0 0 0 84.116.864a3.787 3.787 0 0 0-3.783 3.783c0 .852.293 1.63.77 2.264l-1.191 2.383h-7.414V8.132C72.498 3.648 68.85 0 64.366 0a8.107 8.107 0 0 0-7.364 4.685c-.05-.005-.1-.003-.151-.007-.204-.015-.408-.03-.617-.03l-.015.002c-4.473-.016-8.116 3.65-8.117 8.129 0 .113.003.226.007.34a8.135 8.135 0 0 0-10.462 7.792c0 1.13.237 2.244.693 3.274A12.206 12.206 0 0 0 33 34.27c0 4.058 2.02 7.827 5.34 10.086a8.096 8.096 0 0 0-.693 3.274c0 4.484 3.648 8.132 8.132 8.132.797 0 1.58-.115 2.33-.34a7.258 7.258 0 0 0-.007.34c0 4.48 3.648 8.146 8.118 8.13l.014.002c.206 0 .407-.016.61-.03.053-.005.104-.003.158-.008a8.106 8.106 0 0 0 7.364 4.684c4.088 0 7.473-3.036 8.039-6.97h7.507l1.192 2.383a3.748 3.748 0 0 0-.771 2.264A3.787 3.787 0 0 0 84.116 70a3.787 3.787 0 0 0 3.782-3.783 3.788 3.788 0 0 0-3.782-3.783c-.38 0-.74.074-1.085.178l-1.362-2.723a1.162 1.162 0 0 0-1.039-.642h-8.132v-3.485h16.868l3.563 4.454a3.754 3.754 0 0 0-.98 2.516 3.787 3.787 0 0 0 3.783 3.783 3.787 3.787 0 0 0 3.783-3.783 3.787 3.787 0 0 0-4.56-3.701l-4.124-5.157a1.164 1.164 0 0 0-.908-.436H72.498v-4.646h20.91c.211 0 .417-.057.599-.166l2.737-1.642c.665.58 1.524.944 2.473.944A3.787 3.787 0 0 0 103 44.145a3.788 3.788 0 0 0-3.783-3.783zm-17.425-2.324c.804 0 1.459.655 1.459 1.46 0 .805-.655 1.46-1.46 1.46-.804 0-1.46-.655-1.46-1.46 0-.805.656-1.46 1.46-1.46zm9.293-8.132a1.46 1.46 0 1 1-1.46 1.46c0-.805.655-1.46 1.46-1.46zm8.132-4.646c.805 0 1.46.654 1.46 1.459s-.655 1.46-1.46 1.46c-.804 0-1.46-.655-1.46-1.46 0-.805.656-1.46 1.46-1.46zM95.732 6.673c.805 0 1.46.654 1.46 1.459s-.655 1.46-1.46 1.46c-.805 0-1.46-.655-1.46-1.46 0-.805.655-1.46 1.46-1.46zM84.115 3.187c.805 0 1.46.655 1.46 1.46a1.46 1.46 0 1 1-1.46-1.46zm1.46 63.03c0 .804-.655 1.46-1.46 1.46-.804 0-1.46-.656-1.46-1.46 0-.805.656-1.46 1.46-1.46.805 0 1.46.655 1.46 1.46zm11.617-3.485a1.46 1.46 0 0 1-2.92 0c0-.601.367-1.118.887-1.34.002-.003.005-.004.008-.006a1.461 1.461 0 0 1 2.024 1.345zm-32.826 3.485a5.78 5.78 0 0 1-5.034-2.94c2.95-1.221 5.034-4.129 5.034-7.516a1.162 1.162 0 1 0-2.324 0c0 2.784-1.97 5.11-4.586 5.675-.063.013-.124.018-.186.03a5.786 5.786 0 0 1-.96.097c-3.232.058-5.885-2.576-5.885-5.802 0-.659.118-1.319.349-1.962a1.16 1.16 0 0 0-1.745-1.355 5.775 5.775 0 0 1-3.25.994 5.816 5.816 0 0 1-5.809-5.808c0-1.085.308-2.149.89-3.077a1.163 1.163 0 0 0-.424-1.633 9.884 9.884 0 0 1-5.112-8.65 9.884 9.884 0 0 1 5.112-8.65c.28-.154.484-.416.564-.725.08-.31.029-.638-.14-.908a5.787 5.787 0 0 1-.89-3.077 5.816 5.816 0 0 1 5.809-5.808c1.166 0 2.29.344 3.25.994a1.161 1.161 0 0 0 1.745-1.354 5.805 5.805 0 0 1-.349-1.963c0-3.23 2.658-5.862 5.895-5.8.323.005.64.04.948.096.063.011.124.016.188.03 2.617.563 4.587 2.89 4.587 5.674a1.162 1.162 0 1 0 2.323 0c0-3.387-2.083-6.295-5.034-7.516a5.78 5.78 0 0 1 5.034-2.94 5.816 5.816 0 0 1 5.809 5.809V22.71c-.082.16-.14.333-.14.524s.058.365.14.523v6.447H67.85a3.49 3.49 0 0 1-3.485-3.485 1.162 1.162 0 0 0-2.323 0 5.816 5.816 0 0 0 5.808 5.809h2.324v10.455H67.55a2.024 2.024 0 0 1-2.022-2.022c0-4.01-3.262-7.272-7.272-7.272h-.86a1.162 1.162 0 0 0 0 2.323h.86a4.955 4.955 0 0 1 4.948 4.95 4.35 4.35 0 0 0 4.346 4.344h2.625v15.103a5.815 5.815 0 0 1-5.81 5.808zm34.851-20.613c-.804 0-1.46-.654-1.46-1.46 0-.804.656-1.458 1.46-1.458.805 0 1.46.654 1.46 1.459s-.655 1.46-1.46 1.46z"/>
        <mask id="b" fill="#fff">
            <use xlink:href="#a"/>
        </mask>
        <use fill="#FFC843" fill-rule="nonzero" xlink:href="#a"/>
        <g mask="url(#b)">
            <use fill="#7698FF" xlink:href="#c"/>
            <path stroke="#979797" d="M67.579-5.947H102.5v84.658H67.579z"/>
        </g>
        <g fill-rule="nonzero">
            <path fill="#FCDC40" d="M135.661 55.559h-23.123v-10.5c0-3.11 2.454-5.633 5.482-5.633h12.159c3.028 0 5.482 2.522 5.482 5.633v10.5z"/>
            <path fill="#FFF" d="M117.378 50.181h13.981v5.378h-13.981zM124.638 42.652c-1.04 0-1.883-.822-1.883-1.837v-5.154h3.765v5.154c0 1.015-.843 1.837-1.882 1.837z"/>
            <path fill="#B3C6FF" d="M114.345 28.133h19.51l.514-2.593c1.332-6.714-3.634-13.002-10.27-13.002-6.635 0-11.601 6.288-10.268 13.002l.514 2.593z"/>
            <path fill="#FFF" d="M135.661 29.477c0 1.337-1.203 2.42-2.688 2.42s-2.69-1.083-2.69-2.42c0-1.336 1.205-2.42 2.69-2.42 1.485 0 2.688 1.084 2.688 2.42zM118.99 29.477c0 1.337-1.203 2.42-2.688 2.42s-2.689-1.083-2.689-2.42c0-1.336 1.204-2.42 2.689-2.42s2.689 1.084 2.689 2.42z"/>
            <path fill="#FFF" d="M124.1 37.813c-3.342 0-6.16-2.575-6.575-6.005l-1.223-10.128h15.595l-1.223 10.128c-.414 3.43-3.233 6.005-6.574 6.005z"/>
            <path fill="#B3C6FF" d="M115.227 24.494s3.383.986 6.49-1.355c0 0 6.94 5.079 13.693.159a.619.619 0 0 0-.02-1.01l-4.194-2.76h-15.97v4.966z"/>
            <g fill="#474D54">
                <path d="M130.305 38.93h-3.445v-1.083a7.394 7.394 0 0 0 1.504-.749.65.65 0 0 0 .192-.892.636.636 0 0 0-.884-.194 6.09 6.09 0 0 1-3.323.986c-3.096 0-5.72-2.34-6.103-5.44l-.806-6.509a8.654 8.654 0 0 0 4.411-1.415 15.24 15.24 0 0 0 4.235 1.77c1.065.264 2.117.396 3.148.396.66 0 1.31-.056 1.95-.163l-.732 5.92a6.185 6.185 0 0 1-.98 2.668.65.65 0 0 0 .177.895.632.632 0 0 0 .887-.18 7.453 7.453 0 0 0 1.13-2.853c.37.148.766.226 1.167.226 1.742 0 3.16-1.43 3.16-3.19 0-.84-.325-1.606-.854-2.177l.259-1.271c.117-.582.191-1.173.22-1.76.185-.12.37-.242.552-.371a1.258 1.258 0 0 0-.045-2.08l-.747-.48a11.484 11.484 0 0 0-3.803-6.342 11.209 11.209 0 0 0-13.446-.758.65.65 0 0 0-.18.896.636.636 0 0 0 .887.181 9.872 9.872 0 0 1 5.513-1.67c2.378 0 4.592.81 6.405 2.342a10.195 10.195 0 0 1 2.992 4.3l-1.898-1.221a.636.636 0 0 0-.883.197c-.19.301-.103.7.195.892l4.226 2.72c-2.673 1.887-5.685 2.439-8.951 1.639-2.493-.61-4.209-1.818-4.225-1.83a.635.635 0 0 0-.747.005c-2.28 1.68-4.727 1.492-5.673 1.334a.64.64 0 0 0-.736.531.645.645 0 0 0 .526.743c.156.026.347.053.567.074l.116.943a3.116 3.116 0 0 0-1.56.197l-.15-.742a10.085 10.085 0 0 1 2.303-8.712.65.65 0 0 0-.056-.912.635.635 0 0 0-.903.057 11.375 11.375 0 0 0-2.597 9.826l.258 1.272a3.195 3.195 0 0 0-.854 2.177c0 1.76 1.418 3.19 3.16 3.19.406 0 .8-.077 1.167-.225a7.5 7.5 0 0 0 4.806 5.757v1.085h-3.707a6.057 6.057 0 0 0-3.458 1.078.65.65 0 0 0-.167.898.638.638 0 0 0 .89.168 4.79 4.79 0 0 1 2.735-.852h3.707v.586c0 1.398 1.127 2.535 2.512 2.535 1.384 0 2.51-1.137 2.51-2.535v-.586h3.446c2.674 0 4.85 2.197 4.85 4.897V55.45c0 .357.286.646.64.646.353 0 .64-.289.64-.646V45.12c0-3.413-2.75-6.19-6.13-6.19zm2.529-7.909c-.357 0-.695-.099-.99-.286l.422-3.421c.183-.058.373-.089.568-.089 1.036 0 1.88.852 1.88 1.899a1.89 1.89 0 0 1-1.88 1.897zm1.31-5.606l-.15.743a3.112 3.112 0 0 0-1.56-.198l.077-.626a11.751 11.751 0 0 0 1.755-.67c-.032.252-.071.502-.122.751zm-20.16 3.709c0-1.047.844-1.899 1.88-1.899.195 0 .385.03.567.089l.423 3.422a1.847 1.847 0 0 1-.99.285 1.89 1.89 0 0 1-1.88-1.897zM124.35 42.05a1.24 1.24 0 0 1-1.232-1.243v-2.624c.401.068.813.106 1.232.106.415 0 .827-.036 1.231-.105v2.623c0 .686-.552 1.243-1.231 1.243zM113.38 42.265a.638.638 0 0 0-.846.325 6.194 6.194 0 0 0-.534 2.53v10.33c0 .357.287.646.64.646.353 0 .64-.289.64-.646V45.12a4.9 4.9 0 0 1 .421-2.002.648.648 0 0 0-.322-.853z"/>
                <path d="M120.5 27.929a.643.643 0 0 0-.621.663l.01.404c.01.35.295.628.64.628h.018a.643.643 0 0 0 .622-.664l-.011-.403a.642.642 0 0 0-.657-.628zM127.888 27.929a.643.643 0 0 0-.622.663l.01.404c.01.35.295.628.64.628h.017a.643.643 0 0 0 .623-.664l-.011-.403a.642.642 0 0 0-.657-.628zM125.944 31.014c-.4.558-1.046.891-1.727.891a2.132 2.132 0 0 1-1.727-.891.636.636 0 0 0-.893-.145.65.65 0 0 0-.143.902 3.412 3.412 0 0 0 2.763 1.426c1.09 0 2.123-.533 2.763-1.426a.65.65 0 0 0-.142-.902.636.636 0 0 0-.894.145zM117.112 46.152c-.354 0-.64.289-.64.645v8.653c0 .357.286.646.64.646.353 0 .64-.289.64-.646v-8.653a.643.643 0 0 0-.64-.645zM131.323 46.152c-.354 0-.64.289-.64.645v8.653c0 .357.286.646.64.646.353 0 .64-.289.64-.646v-8.653a.643.643 0 0 0-.64-.645z"/>
            </g>
        </g>
        <g fill-rule="nonzero">
            <path fill="#FCDC40" d="M7.163 41.348h10.674c2.45 0 4.505-1.833 4.767-4.25l1.242-11.475c.725-6.696-4.561-12.536-11.346-12.536S.429 18.927 1.154 25.623l1.242 11.475c.262 2.417 2.317 4.25 4.767 4.25z"/>
            <path fill="#7698FF" fill-opacity=".557" d="M23.913 48.667v7.898H1.087v-7.898c0-3.126 1.768-5.853 4.393-7.302a8.92 8.92 0 0 1 4.32-1.104h5.398c1.605 0 3.109.418 4.4 1.149 2.582 1.459 4.315 4.162 4.315 7.257z"/>
            <path fill="#FFF" d="M19.565 41.428c-.257 3.6-3.322 6.442-7.064 6.442-3.758 0-6.832-2.866-7.066-6.487A8.824 8.824 0 0 1 9.76 40.26h5.401c1.607 0 3.112.424 4.404 1.167z"/>
            <path fill="#FFF" d="M13.043 43.522c-1.2 0-2.173-.895-2.173-2v-5.609h4.347v5.61c0 1.104-.973 1.999-2.174 1.999zM23.913 28.848a2.718 2.718 0 1 1-5.435 0 2.718 2.718 0 0 1 5.435 0zM6.522 28.848a2.718 2.718 0 1 1-5.435 0 2.718 2.718 0 0 1 5.435 0z"/>
            <path fill="#FFF" d="M4.348 21.783l1.318 10.08c.464 3.556 3.627 6.224 7.377 6.224s6.914-2.668 7.378-6.224l1.318-10.08H4.348z"/>
            <path fill="#FCDC40" d="M3.26 20.696v3.14s5.548 2.096 9.543-1.787c0 0 1.534 5.177 8.135 6.244.504.082.974-.292 1.041-.828l.847-6.77H3.261z"/>
            <path fill="#76FFD9" d="M18.478 31.565a1.087 1.087 0 1 1-2.174 0 1.087 1.087 0 0 1 2.174 0zM9.783 31.565a1.087 1.087 0 1 1-2.174 0 1.087 1.087 0 0 1 2.174 0z"/>
            <g fill="#474D54">
                <path d="M20.43 40.753a5.453 5.453 0 0 0 2.41-2.622.659.659 0 0 0-.355-.868.673.673 0 0 0-.878.351 4.13 4.13 0 0 1-2.668 2.324 9.415 9.415 0 0 0-3.759-.778h-.016v-1.169c2.643-.937 4.667-3.219 5.165-6.059a3.394 3.394 0 0 0 2.058.15l-.309 2.839a.664.664 0 0 0 .666.732.667.667 0 0 0 .666-.59l.403-3.712a3.31 3.31 0 0 0 1.158-2.51c0-.745-.249-1.433-.668-1.989l.18-1.658c.423-3.888-1.115-7.738-4.113-10.298a.676.676 0 0 0-.945.067.656.656 0 0 0 .069.933 10.544 10.544 0 0 1 3.658 9.157l-.086.787a3.4 3.4 0 0 0-.775-.261l.219-1.623a.663.663 0 0 0-.576-.743.668.668 0 0 0-.752.568l-.373 2.775a.248.248 0 0 1-.283.209c-2.57-.386-4.635-1.408-6.139-3.036-1.126-1.22-1.502-2.344-1.505-2.353a.676.676 0 0 0-1.091-.29c-2.906 2.628-6.745 2.08-8.26 1.721a.661.661 0 1 0-.311 1.287c.129.03.275.062.433.094l.17 1.349a3.391 3.391 0 0 0-1.919.303l-.085-.787a10.53 10.53 0 0 1 2.685-8.215 10.803 10.803 0 0 1 7.981-3.515c1.638 0 3.208.354 4.668 1.052.332.159.733.02.894-.308a.658.658 0 0 0-.31-.883A12.074 12.074 0 0 0 12.484 12a12.15 12.15 0 0 0-8.976 3.954 11.842 11.842 0 0 0-3.021 9.24l.18 1.658A3.291 3.291 0 0 0 0 28.841c0 1 .449 1.898 1.157 2.51l.571 5.25c.193 1.77 1.272 3.316 2.81 4.153-2.485 1.667-4.12 4.48-4.12 7.665v2.727c0 .365.3.661.669.661.37 0 .67-.296.67-.661v-2.727c0-2.57 1.243-4.858 3.166-6.309l1.226-.764a8.068 8.068 0 0 1 3.641-.863h.016v.633c0 1.459 1.202 2.646 2.68 2.646 1.476 0 2.678-1.187 2.678-2.646v-.633h.016c1.311 0 2.55.312 3.645.865l1.225.764c1.922 1.451 3.164 3.739 3.164 6.307v8.079c0 .365.3.661.67.661.37 0 .67-.296.67-.661v-8.079c0-3.184-1.637-5.999-4.123-7.666zm.396-12.683a1.588 1.588 0 0 0 1.28-1.176 2.02 2.02 0 0 1 1.525 1.947c0 1.108-.913 2.01-2.035 2.01a2.03 2.03 0 0 1-1.082-.308l.312-2.473zm-19.487.77c0-1.108.913-2.01 2.036-2.01.215 0 .424.033.625.097l.457 3.616a2.03 2.03 0 0 1-1.082.308c-1.123 0-2.036-.902-2.036-2.01zm8.467 10.32H9.79a9.42 9.42 0 0 0-3.76.779c-1.602-.45-2.791-1.837-2.97-3.48l-.476-4.378a3.401 3.401 0 0 0 2.057-.15c.497 2.84 2.522 5.123 5.165 6.06v1.17zm4.019 1.956c0 .73-.6 1.323-1.34 1.323-.738 0-1.34-.594-1.34-1.323v-2.777c.437.074.885.114 1.34.114.456 0 .903-.04 1.34-.114v2.777zm-1.34-3.986c-3.333 0-6.157-2.463-6.57-5.73l-.887-7.015c1.918.172 4.607-.016 6.96-1.745a9.35 9.35 0 0 0 1.358 1.924c1.09 1.197 3.018 2.703 6.15 3.36l-.44 3.476c-.413 3.267-3.238 5.73-6.57 5.73zM1.087 53.499c-.37 0-.67.296-.67.662v2.337c0 .365.3.661.67.661.37 0 .67-.296.67-.661V54.16c0-.366-.3-.662-.67-.662z"/>
                <path d="M8.525 29.35l.019-.001c.37-.01.66-.314.65-.68l-.01-.423a.665.665 0 0 0-.689-.643.665.665 0 0 0-.65.68l.011.423c.01.359.308.643.669.643zM16.456 29.35l.02-.001c.369-.01.66-.314.65-.68l-.011-.423a.665.665 0 0 0-.688-.643.665.665 0 0 0-.651.68l.012.423c.01.359.307.643.668.643zM12.485 33.103a3.671 3.671 0 0 0 2.953-1.49.656.656 0 0 0-.15-.925.675.675 0 0 0-.934.148 2.323 2.323 0 0 1-3.737 0 .675.675 0 0 0-.935-.148.657.657 0 0 0-.15.924 3.672 3.672 0 0 0 2.953 1.491zM4.856 46.746c-.37 0-.67.297-.67.662v9.09c0 .365.3.661.67.661.37 0 .67-.296.67-.661v-9.09c0-.365-.3-.662-.67-.662zM20.115 46.746c-.37 0-.67.297-.67.662v9.09c0 .365.3.661.67.661.37 0 .67-.296.67-.661v-9.09c0-.365-.3-.662-.67-.662z"/>
            </g>
            <path fill="#FFF" d="M14.164 51.32l.257-1.617c.057-.36-.237-.691-.658-.74-.422-.05-.809.203-.867.563l-.209 1.311a3.387 3.387 0 0 0-.374 0l-.21-1.311c-.057-.36-.445-.613-.866-.563-.42.049-.715.38-.658.74l.258 1.617c-.64.425-1.054 1.09-1.054 1.835 0 1.281 1.219 2.323 2.717 2.323s2.717-1.042 2.717-2.323c0-.746-.413-1.41-1.053-1.835z"/>
        </g>
    </g>
</svg>
