<svg xmlns="http://www.w3.org/2000/svg" width="15" height="20" viewBox="0 0 15 20">
    <g fill="#7698FF" fill-rule="nonzero">
        <path d="M13.706 2.235h-2.534V.588A.589.589 0 0 0 10.574 0c-.032 0-.054.01-.064.021A.081.081 0 0 0 10.467 0H4.426a.58.58 0 0 0-.588.588v1.647H1.294C.567 2.235 0 2.8 0 3.529v2.117h1.123v12.05a1.26 1.26 0 0 0 1.283 1.284h10.188c.728 0 1.294-.556 1.294-1.284V5.646H15V3.529c0-.728-.567-1.294-1.294-1.294zM5.014 1.176h4.972v1.059H5.014V1.176zm7.687 16.52c0 .075-.032.107-.107.107H2.406c-.075 0-.107-.032-.107-.107V5.646H12.7v12.05zM13.813 4.47H1.187v-.941c0-.075.032-.118.107-.118h12.412c.075 0 .107.043.107.118v.94z"/>
        <path d="M9.694 7.041h1.224v9.694H9.694zM6.939 7.041h1.224v9.694H6.939zM4.184 7.041h1.224v9.694H4.184z"/>
    </g>
</svg>
