<svg xmlns="http://www.w3.org/2000/svg" width="19" height="35" viewBox="0 0 19 35">
    <g fill="none" fill-rule="nonzero">
        <path fill="#FCDC40" d="M5.444 22.5h8.112a3.645 3.645 0 0 0 3.623-3.259l.944-8.797C18.674 5.311 14.657.834 9.5.834 4.343.833.326 5.31.877 10.443l.944 8.797A3.646 3.646 0 0 0 5.444 22.5z"/>
        <path fill="#7698FF" fill-opacity=".557" d="M18.174 28.112v6.055H.826v-6.055c0-2.397 1.344-4.488 3.338-5.598a6.733 6.733 0 0 1 3.285-.847h4.102c1.22 0 2.362.32 3.343.88 1.963 1.119 3.28 3.191 3.28 5.565z"/>
        <path fill="#FFF" d="M14.87 22.561c-.196 2.76-2.525 4.939-5.369 4.939-2.857 0-5.193-2.197-5.37-4.973a6.66 6.66 0 0 1 3.286-.86h4.106c1.22 0 2.364.325 3.347.894z"/>
        <path fill="#FFF" d="M9.913 24.167c-.913 0-1.652-.687-1.652-1.533v-4.3h3.304v4.3c0 .846-.74 1.533-1.652 1.533zM18.174 12.917c0 1.15-.925 2.083-2.065 2.083a2.074 2.074 0 0 1-2.066-2.083c0-1.151.925-2.084 2.066-2.084 1.14 0 2.065.933 2.065 2.084zM4.957 12.917c0 1.15-.925 2.083-2.066 2.083a2.074 2.074 0 0 1-2.065-2.083c0-1.151.925-2.084 2.065-2.084s2.066.933 2.066 2.084z"/>
        <path fill="#FFF" d="M3.304 7.5l1.002 7.729C4.659 17.954 7.063 20 9.913 20s5.254-2.046 5.607-4.771L16.522 7.5H3.304z"/>
        <path fill="#FCDC40" d="M2.478 6.667v2.408s4.216 1.606 7.252-1.37c0 0 1.166 3.968 6.183 4.786.383.063.74-.223.791-.635l.644-5.19H2.478z"/>
        <path fill="#76FFD9" d="M14.043 15a.83.83 0 0 1-.825.833.83.83 0 0 1-.827-.833c0-.46.37-.833.827-.833a.83.83 0 0 1 .825.833zM7.435 15a.83.83 0 0 1-.826.833.83.83 0 0 1-.826-.833c0-.46.37-.833.826-.833a.83.83 0 0 1 .826.833z"/>
        <g fill="#474D54">
            <path d="M15.527 22.044a4.167 4.167 0 0 0 1.831-2.01.51.51 0 0 0-.937-.396 3.147 3.147 0 0 1-2.028 1.781 7.102 7.102 0 0 0-2.856-.596h-.012v-.896a6.048 6.048 0 0 0 3.925-4.646 2.56 2.56 0 0 0 1.564.115l-.235 2.177a.508.508 0 0 0 .507.561.509.509 0 0 0 .505-.453l.307-2.845a2.547 2.547 0 0 0 .372-3.45l.137-1.27a9.133 9.133 0 0 0-3.126-7.896.51.51 0 0 0-.718.052.506.506 0 0 0 .052.715 8.12 8.12 0 0 1 2.78 7.02l-.065.604a2.568 2.568 0 0 0-.589-.2l.166-1.245a.509.509 0 1 0-1.01-.134l-.282 2.128a.186.186 0 0 1-.215.16c-1.953-.296-3.522-1.08-4.666-2.328-.856-.934-1.142-1.797-1.144-1.804a.508.508 0 0 0-.829-.222C6.753 8.981 3.835 8.56 2.683 8.286a.507.507 0 1 0-.237.987c.099.023.21.047.33.07l.13 1.035a2.559 2.559 0 0 0-1.458.232l-.066-.603a8.118 8.118 0 0 1 2.041-6.298A8.178 8.178 0 0 1 9.49 1.014c1.245 0 2.438.272 3.547.806a.51.51 0 0 0 .68-.235.506.506 0 0 0-.237-.677A9.11 9.11 0 0 0 9.49 0a9.197 9.197 0 0 0-6.822 3.032A9.13 9.13 0 0 0 .37 10.115l.137 1.272a2.547 2.547 0 0 0 .372 3.449l.433 4.024a4.16 4.16 0 0 0 2.136 3.185 7.09 7.09 0 0 0-3.132 5.877v2.09a.508.508 0 0 0 1.018 0v-2.09a6.07 6.07 0 0 1 2.406-4.837l.932-.586a6.088 6.088 0 0 1 2.768-.662h.012v.485c0 1.119.913 2.029 2.036 2.029 1.122 0 2.036-.91 2.036-2.029v-.485h.012c.996 0 1.938.24 2.77.663l.93.586a6.071 6.071 0 0 1 2.406 4.836v6.193a.508.508 0 0 0 1.017 0v-6.193a7.09 7.09 0 0 0-3.133-5.878zm.3-9.724a1.202 1.202 0 0 0 .973-.901c.666.171 1.16.776 1.16 1.492a1.546 1.546 0 0 1-2.37 1.306l.238-1.897zm-14.81.591a1.546 1.546 0 0 1 2.023-1.467l.347 2.772a1.546 1.546 0 0 1-2.37-1.305zm6.436 7.912H7.44a7.106 7.106 0 0 0-2.858.597 3.14 3.14 0 0 1-2.258-2.668l-.361-3.356a2.563 2.563 0 0 0 1.563-.116 6.048 6.048 0 0 0 3.926 4.647v.896zm3.054 1.499a1.017 1.017 0 0 1-2.036 0v-2.129a6.057 6.057 0 0 0 2.036 0v2.129zm-1.018-3.056a5.034 5.034 0 0 1-4.994-4.393l-.674-5.378c1.458.132 3.502-.012 5.29-1.338a7.17 7.17 0 0 0 1.032 1.475c.828.918 2.294 2.073 4.673 2.576l-.334 2.665a5.034 5.034 0 0 1-4.993 4.393zM.826 31.816a.508.508 0 0 0-.509.507v1.792a.508.508 0 0 0 1.018 0v-1.792a.508.508 0 0 0-.51-.507z"/>
            <path d="M6.479 13.301h.014a.508.508 0 0 0 .495-.521l-.009-.325a.508.508 0 1 0-1.018.028l.01.325a.508.508 0 0 0 .508.493zM12.507 13.301h.014a.508.508 0 0 0 .495-.521l-.009-.325a.508.508 0 1 0-1.018.028l.01.325a.508.508 0 0 0 .508.493zM9.489 16.18c.885 0 1.724-.428 2.244-1.144a.506.506 0 0 0-.114-.708.51.51 0 0 0-.71.113 1.76 1.76 0 0 1-1.42.724c-.56 0-1.09-.27-1.42-.724a.51.51 0 0 0-.711-.113.506.506 0 0 0-.114.708 2.783 2.783 0 0 0 2.245 1.143zM3.69 26.639a.508.508 0 0 0-.508.507v6.97a.508.508 0 0 0 1.017 0v-6.97a.508.508 0 0 0-.508-.507zM15.287 26.639a.508.508 0 0 0-.509.507v6.97a.508.508 0 0 0 1.018 0v-6.97a.508.508 0 0 0-.509-.507z"/>
        </g>
        <path fill="#FFF" d="M10.764 30.145l.196-1.239c.044-.276-.18-.53-.5-.568-.32-.038-.615.156-.659.432l-.159 1.005a2.552 2.552 0 0 0-.284 0l-.16-1.005c-.043-.276-.338-.47-.658-.432-.32.038-.544.292-.5.568l.196 1.239c-.487.326-.801.836-.801 1.407 0 .982.926 1.781 2.065 1.781 1.139 0 2.065-.799 2.065-1.78 0-.572-.314-1.082-.8-1.408z"/>
    </g>
</svg>
