<svg xmlns="http://www.w3.org/2000/svg" width="71" height="71" viewBox="0 0 71 71">
    <g fill="none" fill-rule="nonzero">
        <path fill="#000" d="M41.99 4.58h2.29v2.291h-2.29zM31.301 4.58h9.161v2.291h-9.16zM33.591 64.129h9.162v2.29H33.59zM49.624 64.129h2.29v2.29h-2.29zM24.43 64.129h2.29v2.29h-2.29z"/>
        <path fill="#FCDC40" d="M40.462 36.645c0-7.835 6.057-14.242 13.742-14.829v-8.074H22.14v43.516h32.064v-5.784c-7.685-.586-13.742-6.994-13.742-14.829z"/>
        <path fill="#000" d="M26.72 36.645h9.925v2.29H26.72zM26.72 41.226h9.925v2.29H26.72zM26.72 45.806h9.925v2.29H26.72zM26.72 50.387h9.925v2.29H26.72zM63.366 4.58h2.29V15.27h-2.29zM63.366 0h2.29v2.29h-2.29zM10.688 56.495h2.29v10.688h-2.29z"/>
        <path fill="#7698FF" d="M64.51 20.613a3.44 3.44 0 0 1-3.435-3.436 3.44 3.44 0 0 1 3.436-3.435 3.44 3.44 0 0 1 3.435 3.435 3.44 3.44 0 0 1-3.435 3.436z"/>
        <path fill="#F0BC5E" d="M11.833 57.258a3.44 3.44 0 0 1-3.435-3.435 3.44 3.44 0 0 1 3.435-3.436 3.44 3.44 0 0 1 3.436 3.436 3.44 3.44 0 0 1-3.436 3.435z"/>
        <path fill="#000" d="M10.688 68.71h2.29V71h-2.29zM71 36.645c0-7.66-5.403-14.074-12.597-15.652V5.726A5.732 5.732 0 0 0 52.677 0H22.903a5.732 5.732 0 0 0-5.726 5.726v12.597h-6.62l-.69 2.766-2.444-1.467-6.124 6.121 1.467 2.446L0 28.88v8.66l2.767.691-1.468 2.446 6.123 6.122 2.444-1.467.691 2.766h6.62v17.177A5.732 5.732 0 0 0 22.903 71h29.774a5.732 5.732 0 0 0 5.726-5.726V52.297C65.597 50.72 71 44.305 71 36.645zm-2.29 0a13.64 13.64 0 0 1-1.495 6.2 5.713 5.713 0 0 0-3.987-3.597l-4.825-1.207v-.274a5.732 5.732 0 0 0 2.29-4.556v-2.29c0-1.6-.676-3.14-1.857-4.223a5.756 5.756 0 0 0-4.377-1.482c-2.926.254-5.217 2.864-5.217 5.94v2.054c0 1.79.863 3.481 2.29 4.556v.274l-4.824 1.207a5.713 5.713 0 0 0-3.988 3.597 13.632 13.632 0 0 1-1.494-6.199c0-7.577 6.164-13.742 13.742-13.742 7.577 0 13.742 6.165 13.742 13.742zm-29.099-4.58H28.63V20.613h18.323v2.169a16.088 16.088 0 0 0-7.34 9.283zM22.903 2.29h29.774a3.44 3.44 0 0 1 3.436 3.436V9.16H19.468V5.726a3.44 3.44 0 0 1 3.435-3.436zm-5.726 36.155a5.688 5.688 0 0 1-2.29.49 5.732 5.732 0 0 1-5.726-5.725 5.732 5.732 0 0 1 5.726-5.726c.788 0 1.568.172 2.29.49v10.471zm-4.831 7.361l-.558-2.231-.232-.613-1.308-.531-2.471 1.484-3.594-3.595 1.484-2.472-.572-1.398-2.805-.7V30.67l2.801-.7.576-1.397-1.484-2.473 3.594-3.594 2.471 1.484 1.397-.568.701-2.808h4.831v4.93a7.961 7.961 0 0 0-2.29-.35c-4.42 0-8.016 3.598-8.016 8.017s3.596 8.016 8.016 8.016c.778 0 1.547-.126 2.29-.35v4.93h-4.831zM52.677 68.71H22.903a3.44 3.44 0 0 1-3.435-3.436V61.84h36.645v3.435a3.44 3.44 0 0 1-3.436 3.436zm3.436-9.162H19.468V11.452h36.645v9.22c-.38-.028-.758-.06-1.145-.06-2.02 0-3.945.391-5.726 1.076v-3.365H26.339v16.032h12.78a15.9 15.9 0 0 0-.184 2.29c0 8.84 7.192 16.032 16.033 16.032.387 0 .765-.03 1.145-.058v6.93zm-1.145-9.16c-4.106 0-7.786-1.82-10.307-4.683v-.903c0-1.579 1.071-2.95 2.602-3.333l6.56-1.64v-3.333l-.57-.33c-1.077-.628-1.72-1.733-1.72-2.956v-2.054c0-1.9 1.372-3.506 3.124-3.658a3.43 3.43 0 0 1 2.632.888 3.446 3.446 0 0 1 1.114 2.533v2.29c0 1.224-.643 2.329-1.721 2.956l-.57.331v3.334l6.56 1.639a3.433 3.433 0 0 1 2.602 3.333v.903c-2.52 2.862-6.2 4.682-10.306 4.682z"/>
    </g>
</svg>
